<?xml version="1.0"?>
<svg xmlns="http://www.w3.org/2000/svg" height="512px" version="1.1" viewBox="0 -79 512.00047 512" width="512px">
<g id="surface1">
<path d="M 499.832031 120.554688 L 490.558594 111.308594 C 490.515625 111.269531 490.472656 111.238281 490.433594 111.199219 L 382.164062 2.929688 C 378.261719 -0.96875 371.945312 -0.976562 368.035156 2.914062 L 354.914062 15.980469 C 330.757812 40.042969 298.675781 53.351562 264.582031 53.460938 C 261.488281 53.46875 258.574219 54.910156 256.6875 57.363281 L 167.355469 173.460938 L 121.5 173.460938 C 54.503906 173.460938 0 227.964844 0 294.957031 L 0 334.789062 C 0 345.820312 8.972656 354.789062 20 354.789062 L 390.613281 354.789062 C 396.136719 354.789062 400.613281 350.3125 400.613281 344.789062 C 400.613281 339.265625 396.136719 334.789062 390.613281 334.789062 L 255.183594 334.789062 L 492.71875 184.8125 C 503.417969 178.058594 510.351562 166.972656 511.746094 154.394531 C 513.136719 141.820312 508.796875 129.484375 499.832031 120.554688 Z M 269.609375 73.363281 C 307.148438 72.015625 342.289062 56.785156 369.027344 30.152344 L 375.078125 24.128906 L 397.738281 46.789062 C 355.363281 86.070312 300.667969 107.847656 242.671875 108.371094 Z M 105.324219 194.753906 C 105.746094 195.476562 106.257812 196.160156 106.878906 196.78125 L 160.078125 249.984375 C 162.03125 251.933594 164.589844 252.910156 167.148438 252.910156 C 169.710938 252.910156 172.269531 251.933594 174.222656 249.984375 C 178.125 246.078125 178.125 239.746094 174.222656 235.839844 L 131.839844 193.457031 L 168.136719 193.457031 L 187.875 213.195312 C 189.828125 215.148438 192.386719 216.125 194.945312 216.125 C 197.503906 216.125 200.066406 215.148438 202.015625 213.195312 C 205.921875 209.292969 205.921875 202.960938 202.015625 199.054688 L 185.558594 182.597656 L 206.582031 155.273438 L 246.671875 195.367188 C 248.625 197.320312 251.183594 198.296875 253.742188 198.296875 C 256.300781 198.296875 258.863281 197.316406 260.8125 195.367188 C 264.71875 191.460938 264.71875 185.128906 260.8125 181.222656 L 218.882812 139.289062 L 227.265625 128.390625 L 241.324219 128.390625 C 274.285156 128.285156 306.4375 121.828125 336.882812 109.195312 C 364.730469 97.644531 389.917969 81.417969 411.886719 60.9375 L 467.710938 116.757812 L 203.632812 289.457031 L 20.148438 289.457031 C 22.722656 241.46875 58.785156 202.238281 105.324219 194.753906 Z M 491.867188 152.195312 C 491.148438 158.691406 487.566406 164.414062 482.042969 167.902344 L 217.722656 334.789062 L 20 334.789062 L 20 309.457031 L 206.613281 309.457031 C 208.558594 309.457031 210.460938 308.890625 212.085938 307.828125 L 482.179688 131.195312 L 485.714844 134.71875 C 490.34375 139.332031 492.585938 145.703125 491.867188 152.195312 Z M 491.867188 152.195312 " style=" fill-rule:nonzero;fill-opacity:1;" stroke="#af9682" fill="#af9682"/>
<path d="M 436.605469 334.792969 C 433.976562 334.792969 431.40625 335.855469 429.535156 337.722656 C 427.675781 339.582031 426.605469 342.164062 426.605469 344.792969 C 426.605469 347.421875 427.675781 350.003906 429.535156 351.863281 C 431.40625 353.722656 433.976562 354.792969 436.605469 354.792969 C 439.246094 354.792969 441.816406 353.722656 443.675781 351.863281 C 445.546875 350.003906 446.617188 347.421875 446.617188 344.792969 C 446.617188 342.164062 445.546875 339.582031 443.675781 337.722656 C 441.816406 335.855469 439.246094 334.792969 436.605469 334.792969 Z M 436.605469 334.792969 " style=" fill-rule:nonzero;fill-opacity:1;" stroke="#af9682" fill="#af9682"/>
<path d="M 220.179688 242.023438 C 222.808594 242.023438 225.390625 240.953125 227.25 239.09375 C 229.109375 237.234375 230.179688 234.664062 230.179688 232.023438 C 230.179688 229.394531 229.109375 226.816406 227.25 224.953125 C 225.390625 223.09375 222.808594 222.023438 220.179688 222.023438 C 217.550781 222.023438 214.96875 223.09375 213.109375 224.953125 C 211.25 226.816406 210.179688 229.394531 210.179688 232.023438 C 210.179688 234.664062 211.25 237.234375 213.109375 239.09375 C 214.96875 240.953125 217.550781 242.023438 220.179688 242.023438 Z M 220.179688 242.023438 " style=" fill-rule:nonzero;fill-opacity:1;" stroke="#af9682" fill="#af9682"/>
</g>
</svg>
