<?xml version="1.0" encoding="utf-8"?>
<!-- Generator: Adobe Illustrator 16.0.0, SVG Export Plug-In . SVG Version: 6.00 Build 0)  -->
<!DOCTYPE svg PUBLIC "-//W3C//DTD SVG 1.1//EN" "http://www.w3.org/Graphics/SVG/1.1/DTD/svg11.dtd" [
	<!ENTITY ns_flows "http://ns.adobe.com/Flows/1.0/">
	<!ENTITY ns_extend "http://ns.adobe.com/Extensibility/1.0/">
	<!ENTITY ns_ai "http://ns.adobe.com/AdobeIllustrator/10.0/">
	<!ENTITY ns_graphs "http://ns.adobe.com/Graphs/1.0/">
]>
<svg version="1.1" id="儗僀儎乕_1" xmlns:x="&ns_extend;" xmlns:i="&ns_ai;" xmlns:graph="&ns_graphs;"
	 xmlns="http://www.w3.org/2000/svg" xmlns:xlink="http://www.w3.org/1999/xlink" xmlns:a="http://ns.adobe.com/AdobeSVGViewerExtensions/3.0/"
	 x="0px" y="0px" width="338px" height="72px" viewBox="0 0 338 72" style="enable-background:new 0 0 338 72;"
	 xml:space="preserve">
<g>
	<path style="fill:#595757;" d="M262.957,60.47h-12.7V12.521h12.7v19.183h25.661V12.521c-0.021-0.002,12.575,0,12.69,0V60.47
		c-0.016,0-12.668,0-12.69,0V39.372c0,0.059-25.661,0-25.661,0V60.47L262.957,60.47z"/>
	<path style="fill:#595757;" d="M142.4,12.521c0.019,0.15,0,8.153,0,8.153H123V60.47h-12.715V20.674H90.884c0,0,0.007-8.129,0-8.153
		C90.891,12.545,142.4,12.521,142.4,12.521L142.4,12.521z"/>
	<path style="fill:#595757;" d="M191.773,60.47c0.058,0-14.227,0-14.146,0c0.033,0-4.146-10.311-4.146-10.311h-23.818
		c0,0-4.081,10.326-4.137,10.311c0.015,0.016-14.142,0-14.142,0l22.404-47.949c0,0.034,15.573,0,15.573,0L191.773,60.47
		 M161.585,20.674l-8.867,21.813h17.712L161.585,20.674"/>
	<polygon style="fill:#595757;" points="311.368,60.47 311.368,12.521 324.078,12.521 324.078,60.47 311.368,60.47 	"/>
	<path style="fill:#595757;" d="M50.841,12.521c-0.01-0.002,12.584,0,12.715,0V60.47c-0.009,0-12.693,0-12.715,0V39.372
		c0,0.059-25.629,0-25.629,0V60.47H12.506V12.521h12.706v19.183h25.629V12.521L50.841,12.521z"/>
	<polygon style="fill:#595757;" points="73.627,60.47 73.627,12.521 86.318,12.521 86.318,60.47 73.627,60.47 	"/>
	<path style="fill:#595757;" d="M191.336,47.193c-1.125-3.228-1.725-6.639-1.725-10.234c0-5.02,0.907-9.886,3.313-13.952
		c2.476-4.155,6.299-7.404,10.903-9.122c4.381-1.644,9.105-2.552,14.067-2.552c5.72,0,11.104,1.255,16.047,3.375
		c4.55,1.968,8.008,6.097,9.052,11.077c0.203,0.997,0.351,2.006,0.445,3.036H230.1c-0.033-1.271-0.238-2.533-0.678-3.68
		c-1.01-2.662-3.229-4.723-5.962-5.551c-1.756-0.529-3.628-0.817-5.564-0.817c-2.188,0-4.319,0.378-6.281,1.077
		c-3.278,1.143-5.789,3.776-6.938,7.017c-1.117,3.169-1.717,6.565-1.717,10.092c0,2.945,0.439,5.757,1.18,8.436
		c0.967,3.482,3.598,6.29,6.956,7.569c2.108,0.808,4.412,1.266,6.801,1.266c2.06,0,4.019-0.317,5.872-0.908
		c2.483-0.787,4.51-2.625,5.56-4.986c0.697-1.561,1.039-3.3,1.039-5.13h13.381c-0.065,1.558-0.285,3.096-0.65,4.535
		c-1.146,4.744-4.457,8.728-8.875,10.582c-5.024,2.116-10.519,3.335-16.326,3.335c-4.489,0-8.819-0.708-12.885-1.996
		C198.836,57.723,193.45,53.264,191.336,47.193L191.336,47.193z"/>
</g>
</svg>
